:SAMPLES-PER-SECOND 30
:FULLY-SPECIFIED
:DEGREES
234
root  -28.4622 39.5411 5.76438 73.0858 87.2075 77.8504
RightUpLeg  -14.5048 -8.61252 -7.12918
RightLeg  -1.6802 7.63786 -0.307752
RightFoot  0.618065 -0.906864 8.6873
RightToes  -5.8209e-011 0 -3.6325e-017
Spine  3.20212 -1.2351 -2.87372
Spine1  11.2714 -1.34788 -0.403241
HEad  -12.1736 0.361483 -1.99787
LeftShoulder1  -0.319867 4.40011 -29.5333
LeftArm  -15.9341 4.8657 -30.5556
LeftForeArm  97.7337 -76.5607 -123.748
LeftHand  -0.11288 0.82804 2.78073
RightShoulder  -0.617813 -5.39047 26.0253
RightArm  -14.6428 -10.2663 38.4229
RightForeArm  115.879 67.1775 150.613
RightHand  -0.0601307 -1.67063 -1.60925
LeftUpLeg  7.63348 7.02461 -2.37136
LeftLeg  13.0345 0.717586 -0.178537
LeftFoot  -13.9446 0.178681 4.17087
LeftToes  8.00323e-011 7.86695e-011 -1.03868e-010
235
root  -27.597 39.3487 5.9341 83.303 86.7606 88.4727
RightUpLeg  -14.5359 -8.74857 -7.28818
RightLeg  0.592952 5.56956 -0.0130893
RightFoot  1.50383 -0.934258 8.3477
RightToes  -5.8209e-011 0 -3.6325e-017
Spine  3.72837 -1.30968 -2.98993
Spine1  11.0549 -1.48043 -0.359516
HEad  -12.1014 0.474642 -2.30672
LeftShoulder1  -0.363382 4.51803 -29.6808
LeftArm  -15.8374 5.29949 -30.4477
LeftForeArm  98.3442 -76.4492 -124.444
LeftHand  -0.143256 0.560759 3.42025
RightShoulder  -0.577854 -5.27645 25.8494
RightArm  -14.6775 -9.97718 38.6437
RightForeArm  115.503 67.3991 150.264
RightHand  -0.0491347 -2.00548 -1.36742
LeftUpLeg  9.40655 7.14981 -2.40131
LeftLeg  13.3545 0.10821 -0.173607
LeftFoot  -15.4413 0.230805 3.85719
LeftToes  8.00323e-011 7.86695e-011 -1.03868e-010
236
root  -26.637 39.126 6.15117 95.4089 86.3578 100.608
RightUpLeg  -14.7616 -8.90048 -7.16958
RightLeg  4.26625 3.37869 0.376354
RightFoot  2.27013 -0.837975 7.20364
RightToes  -5.8209e-011 0 -3.6325e-017
Spine  2.96393 -1.42227 -2.73947
Spine1  11.9145 -1.59245 -0.420005
HEad  -12.1373 0.636146 -2.37092
LeftShoulder1  -0.385408 4.5801 -29.6548
LeftArm  -15.7074 5.40105 -30.6456
LeftForeArm  98.1934 -76.4911 -124.203
LeftHand  -0.123375 1.38585 3.40702
RightShoulder  -0.586401 -5.29799 25.942
RightArm  -14.7313 -9.60091 38.635
RightForeArm  114.745 67.5961 149.907
RightHand  -0.0648264 -2.60327 -2.09208
LeftUpLeg  10.7138 7.06212 -2.21038
LeftLeg  14.0657 -0.604808 -0.0519244
LeftFoot  -17.0716 0.273527 3.41347
LeftToes  8.00323e-011 7.86695e-011 -1.03868e-010
237
root  -25.6934 39.0452 6.36677 118.303 86.4534 123.63
RightUpLeg  -14.9166 -9.06278 -6.21035
RightLeg  7.71893 3.10297 0.746479
RightFoot  5.87624 -0.277638 2.21424
RightToes  -5.8209e-011 0 -3.6325e-017
Spine  2.6731 -1.66937 -0.932139
Spine1  12.5627 -1.82985 -0.254957
HEad  -11.9442 0.412992 -2.07466
LeftShoulder1  -0.406075 4.6361 -29.7086
LeftArm  -15.3983 5.48239 -30.5221
LeftForeArm  98.4874 -76.4475 -124.486
LeftHand  -0.108036 1.68056 3.15798
RightShoulder  -0.643244 -5.47164 25.9796
RightArm  -14.89 -10.0763 38.3286
RightForeArm  115.876 67.3521 150.366
RightHand  -0.030843 -2.7315 -0.726078
LeftUpLeg  12.4576 6.16509 -1.19368
LeftLeg  13.79 -1.1544 0.26417
LeftFoot  -18.006 0.258307 2.57761
LeftToes  8.00323e-011 7.86695e-011 -1.03868e-010
238
root  -24.7328 38.9568 6.5917 143.397 86.7461 148.95
RightUpLeg  -14.8887 -9.06593 -4.8275
RightLeg  10.3177 3.51696 1.13156
RightFoot  9.93215 0.168217 -0.608212
RightToes  -5.8209e-011 0 -3.6325e-017
Spine  2.90236 -1.70859 2.0338
Spine1  12.6283 -1.69208 -0.463485
HEad  -12.7549 -0.412756 -2.19298
LeftShoulder1  -0.382805 4.57443 -29.6102
LeftArm  -15.0641 5.79136 -30.8496
LeftForeArm  98.2267 -76.5158 -124.09
LeftHand  -0.114251 1.42128 3.17163
RightShoulder  -0.677609 -5.55975 26.2796
RightArm  -14.8687 -10.7465 37.5971
RightForeArm  115.924 66.9289 150.96
RightHand  -0.0378421 -2.36073 -0.991416
LeftUpLeg  13.7167 4.16923 0.211086
LeftLeg  14.7433 -0.419272 0.609305
LeftFoot  -19.0378 0.197583 1.26509
LeftToes  8.00323e-011 7.86695e-011 -1.03868e-010
239
root  -23.7675 38.8209 6.83145 168.141 87.2158 174.068
RightUpLeg  -15.3707 -8.83252 -3.06781
RightLeg  15.2518 3.08112 1.00935
RightFoot  6.2001 0.206705 -1.06221
RightToes  -5.8209e-011 0 -3.6325e-017
Spine  3.52444 -1.73002 5.17305
Spine1  12.4587 -1.37559 -1.09429
HEad  -13.3899 -0.53594 -2.94975
LeftShoulder1  -0.377687 4.54693 -30.0539
LeftArm  -14.9698 6.6023 -30.782
LeftForeArm  98.3275 -76.5116 -124.133
LeftHand  -0.116816 1.74923 3.48535
RightShoulder  -0.597334 -5.32628 26.0309
RightArm  -14.6441 -10.6688 37.3725
RightForeArm  115.458 67.3526 150.327
RightHand  -0.0355999 -1.94166 -0.817577
LeftUpLeg  13.6998 2.2128 1.87938
LeftLeg  18.7488 0.589871 0.571897
LeftFoot  -19.8926 0.0306754 -1.17792
LeftToes  8.00323e-011 7.86695e-011 -1.03868e-010
240
root  -22.868 38.7568 7.05554 -176.063 87.2503 -170.348
RightUpLeg  -15.5309 -9.43207 -1.89932
RightLeg  18.0498 3.48209 1.24425
RightFoot  3.97385 0.270588 -1.81156
RightToes  -5.8209e-011 0 -3.6325e-017
Spine  4.04721 -1.91723 7.77335
Spine1  12.0227 -1.17038 -1.57747
HEad  -13.6293 0.392009 -3.06101
LeftShoulder1  -0.437897 4.7079 -30.2209
LeftArm  -15.1742 7.9194 -30.9062
LeftForeArm  99.0589 -76.411 -124.796
LeftHand  -0.104434 2.00953 3.27986
RightShoulder  -0.523651 -5.11678 25.6717
RightArm  -13.9335 -10.2886 37.5922
RightForeArm  114.106 68.0631 149.141
RightHand  -0.0590847 -1.59856 -1.55428
LeftUpLeg  11.8108 1.52594 3.31363
LeftLeg  24.7 -0.266459 0.145955
LeftFoot  -19.023 -0.242609 -5.37877
LeftToes  8.00323e-011 7.86695e-011 -1.03868e-010
241
root  -22.0403 38.7323 7.35357 -170.88 85.3402 -165.388
RightUpLeg  -15.0375 -11.0241 -1.25409
RightLeg  19.9347 2.97333 1.46566
RightFoot  1.48552 0.265877 -2.26458
RightToes  -5.8209e-011 0 -3.6325e-017
Spine  4.18244 -2.48812 8.80359
Spine1  12.0193 -1.76191 -0.134186
HEad  -13.7677 0.726453 -3.12668
LeftShoulder1  -0.442611 4.71663 -30.3483
LeftArm  -15.0943 8.25622 -31.2005
LeftForeArm  97.5131 -76.6572 -123.203
LeftHand  -0.0987476 2.06462 3.12311
RightShoulder  -0.564346 -5.2451 25.6466
RightArm  -13.5183 -9.57848 37.6973
RightForeArm  113.175 68.9371 147.676
RightHand  -0.040147 -1.96192 -1.00044
LeftUpLeg  7.7877 0.816184 5.53774
LeftLeg  33.2292 -3.20272 -1.92694
LeftFoot  -15.3976 -0.234394 -9.79267
LeftToes  8.00323e-011 7.86695e-011 -1.03868e-010
242
root  -21.2638 38.7515 7.657 -167.317 83.2463 -162.162
RightUpLeg  -14.1705 -11.3088 -0.488329
RightLeg  20.6491 1.1835 1.29827
RightFoot  -0.472462 0.21673 -2.31036
RightToes  -5.8209e-011 0 -3.6325e-017
Spine  4.60562 -2.83014 10.0631
Spine1  11.2601 -2.11083 1.08554
HEad  -13.7738 0.171654 -2.92141
LeftShoulder1  -0.418393 4.64234 -30.6036
LeftArm  -14.5422 7.80886 -31.2684
LeftForeArm  95.7478 -76.9403 -121.26
LeftHand  -0.113115 1.62694 3.27706
RightShoulder  -0.519397 -5.12074 25.3191
RightArm  -13.5436 -10.7159 37.3197
RightForeArm  112.877 68.6876 148.043
RightHand  -0.0613291 -2.06909 -1.79218
LeftUpLeg  2.08665 -0.117963 7.7386
LeftLeg  42.7503 -4.16743 -3.67204
LeftFoot  -7.39629 0.383972 -11.4472
LeftToes  8.00323e-011 7.86695e-011 -1.03868e-010
243
root  -20.4957 38.8026 7.90931 -167.376 81.8975 -162.103
RightUpLeg  -12.7265 -11.5936 -0.190441
RightLeg  21.0368 0.128717 1.34602
RightFoot  -2.22235 0.180483 -2.45418
RightToes  -5.8209e-011 0 -3.6325e-017
Spine  5.03566 -2.98773 11.4202
Spine1  11.2188 -2.03257 1.0564
HEad  -14.9782 -0.783319 -2.63476
LeftShoulder1  -0.372736 4.51844 -30.5965
LeftArm  -14.268 6.82806 -31.2973
LeftForeArm  95.6225 -77.042 -120.658
LeftHand  -0.103444 1.87875 3.14416
RightShoulder  -0.455062 -4.92745 25.0912
RightArm  -14.0087 -11.2199 36.9297
RightForeArm  112.969 68.3968 148.517
RightHand  -0.0496724 -2.73554 -1.61759
LeftUpLeg  -3.34667 -0.606299 8.90306
LeftLeg  51.291 -3.08065 -3.67391
LeftFoot  1.17166 0.9573 -8.60843
LeftToes  8.00323e-011 7.86695e-011 -1.03868e-010
244
root  -19.7769 38.8817 8.13924 -170.094 80.9114 -164.402
RightUpLeg  -10.922 -11.555 -0.322026
RightLeg  21.1428 -0.953607 1.23098
RightFoot  -3.72756 0.145655 -2.55995
RightToes  -5.8209e-011 0 -3.6325e-017
Spine  5.9815 -3.17045 12.1295
Spine1  10.9476 -1.92196 0.897103
HEad  -15.879 -0.726607 -1.97504
LeftShoulder1  -0.366939 4.5056 -30.4788
LeftArm  -13.9601 6.07851 -31.3499
LeftForeArm  95.7781 -77.0703 -120.537
LeftHand  -0.0951374 2.03811 2.98098
RightShoulder  -0.442788 -4.89337 24.9689
RightArm  -14.1457 -10.8451 36.6951
RightForeArm  112.755 68.622 148.138
RightHand  -0.0614171 -1.43466 -1.61214
LeftUpLeg  -7.61411 -0.548692 9.47354
LeftLeg  57.698 -2.47561 -3.7208
LeftFoot  0.845035 0.841763 -7.91418
LeftToes  8.00323e-011 7.86695e-011 -1.03868e-010
